<svg xmlns="http://www.w3.org/2000/svg" width="102.523" height="57.514" viewBox="0 0 102.523 57.514">
  <g id="Artwork" transform="translate(-35.326 -34.648)">
    <g id="Group_4344" data-name="Group 4344" transform="translate(35.326 34.648)">
      <path id="Path_8697" data-name="Path 8697" d="M47.259,146.157c0,3.448-2.505,5.414-6.088,5.414H37.723v8h-2.4V140.715h5.845C44.754,140.715,47.259,142.709,47.259,146.157Zm-9.536,3.205h3.448c2.155,0,3.663-1.185,3.663-3.205,0-2.074-1.508-3.232-3.663-3.232H37.723ZM60.107,158.2a8.7,8.7,0,0,1-5.064,1.67,6.583,6.583,0,0,1-6.869-6.842c0-3.906,2.694-6.842,6.465-6.842,3.664,0,6.169,3.017,6.169,6.734a5.618,5.618,0,0,1-.054.835H50.491a4.477,4.477,0,0,0,4.714,4.013,7.417,7.417,0,0,0,4.9-2.074Zm-1.643-6.357a3.833,3.833,0,0,0-3.879-3.637,4.181,4.181,0,0,0-4.04,3.637Zm8.161-8.431h.081v3.071h3.664v2.074H66.706v6.923c0,1.535.674,2.236,2.182,2.236a2.783,2.783,0,0,0,1.482-.4v2.155a4.374,4.374,0,0,1-2.02.4c-2.478,0-3.96-1.535-3.96-4.067v-7.246H62.127v-.3Zm12.122,2.774a6.581,6.581,0,0,1,3.717,1.131v2.343a5.8,5.8,0,0,0-3.61-1.32,4.688,4.688,0,0,0,0,9.374,7,7,0,0,0,3.69-1.293v2.344a7.163,7.163,0,0,1-3.771,1.1,6.842,6.842,0,1,1-.027-13.684Zm14.3,4.741c0-1.643-1.158-2.64-3.1-2.64a6.265,6.265,0,0,0-4.445,1.966v-2.424a6.842,6.842,0,0,1,4.5-1.643c3.367,0,5.307,1.859,5.307,4.9v8.485H93.13v-1.724a5.392,5.392,0,0,1-4.337,2.02,3.726,3.726,0,0,1-3.96-3.744c0-2.343,1.482-3.744,4.364-4.229l3.852-.646v-.323Zm-3.825,6.9a3.551,3.551,0,0,0,3.852-3.475v-1.1l-3.5.62c-1.562.3-2.424,1-2.424,2.128A1.869,1.869,0,0,0,89.225,157.82Zm16.323-9.186a3.294,3.294,0,0,0-.646-.054c-2.424,0-3.906,1.939-3.906,4.768v6.222h-2.29V146.48h2.263V148.8a4.345,4.345,0,0,1,4.014-2.532,2.9,2.9,0,0,1,.565.054v2.317Zm13.037,9.563a8.7,8.7,0,0,1-5.064,1.67,6.583,6.583,0,0,1-6.869-6.842c0-3.906,2.694-6.842,6.465-6.842,3.663,0,6.169,3.017,6.169,6.734a5.6,5.6,0,0,1-.054.835H108.969a4.477,4.477,0,0,0,4.714,4.013,7.417,7.417,0,0,0,4.9-2.074Zm-1.643-6.357a3.833,3.833,0,0,0-3.879-3.637,4.181,4.181,0,0,0-4.041,3.637Z" transform="translate(-35.326 -102.353)" fill="#ff1414"/>
      <path id="Path_8698" data-name="Path 8698" d="M76.263,34.893c-.476,0-.689.284-.867.694C64.264,61.341,63.327,63.379,63.327,63.379h6.309l1.315-3.232h9.506l1.318,3.232H89.2s-.636-1.323-12.068-27.792C76.952,35.178,76.738,34.893,76.263,34.893ZM72.956,55.219,75.7,48.478l2.749,6.741ZM59.636,35.482a1.657,1.657,0,0,1,1.243-.589V63.379H54.954V49.759L48.1,56.607,41.25,49.759v13.62H35.326V34.893a1.656,1.656,0,0,1,1.243.589L48.1,47.018Zm48.271,14.884a7.7,7.7,0,0,0,3.835-6.856,7.608,7.608,0,0,0-2.805-6.118c-1.8-1.454-3.893-2.237-8.162-2.237H91.646V63.379h6.746V52.873h2.09c2.278,0,3.424.863,4.378,3.156a49.8,49.8,0,0,1,2.118,7.351H114.5c-1.068-3.2-1.6-4.713-2.405-6.972C111,53.325,109.666,51.425,107.906,50.367ZM103.592,46.9c-.812.629-1.867.825-3.763.825H98.392s-.014-7.522,0-7.522h1.437c1.98,0,2.965.218,3.761.823a3.935,3.935,0,0,1,0,5.874ZM137.08,58.58c-1.61,3.725-5.555,5.475-10.051,5.475-4.622,0-8.447-1.5-11.018-4.612l3.885-4.069a8.393,8.393,0,0,0,6.83,3.388c1.935-.047,3.112-.786,3.583-1.872a2.544,2.544,0,0,0-.875-3.105c-2.545-2-8.425-2.117-11.209-6.01a7.588,7.588,0,0,1-.67-7.5c1.508-3.457,4.891-5.625,9.376-5.625a13.555,13.555,0,0,1,9.785,3.894l-3.88,4.063a7.628,7.628,0,0,0-5.862-2.778c-1.69,0-2.838.756-3.183,1.909a2.341,2.341,0,0,0,.878,2.573c2.172,1.692,7.669,2.189,10.7,5.065A7.9,7.9,0,0,1,137.08,58.58Z" transform="translate(-35.326 -34.648)" fill="#0000a0"/>
    </g>
  </g>
</svg>
