<svg class="o-header__logo" data-name="World Gold Council logo" viewBox="0.0 0.0 175 65" xmlns="http://www.w3.org/2000/svg">
<defs>
<style>
        .cls-1 {
          fill: var(--gold);
        }
      </style>
</defs>
<path class="cls-1" d="M32.1 0a32.1 32.1 0 1 0 32.1 32.1A32.1 32.1 0 0 0 32.1 0Zm0 61.44A29.34 29.34 0 1 1 61.44 32.1 29.34 29.34 0 0 1 32.1 61.44Zm0-54.37a25 25 0 1 0 25 25A25 25 0 0 0 32.09 7.06Zm0 47.31A22.28 22.28 0 1 1 54.37 32.1 22.28 22.28 0 0 1 32.1 54.37Zm0-40.25a18 18 0 1 0 18 18 18 18 0 0 0-18-18.01Zm0 33.19A15.21 15.21 0 1 1 47.31 32.1a15.21 15.21 0 0 1-15.22 15.21ZM122.68 12.84a5 5 0 0 0 3.7-4.84 5.22 5.22 0 0 0-5.22-5.22h-7.84v16h2.82v-5.57h3.53l3.94 5.59h3.32Zm-6.54-2.2V5.33h5A2.6 2.6 0 0 1 123.69 8a2.6 2.6 0 0 1-2.53 2.66ZM129.46 2.76h2.82v13.47h8.09v2.57h-10.91ZM149.14 2.76h-6.23v16h6.23a8 8 0 1 0 0-16Zm0 13.47h-3.42V5.32h3.42a5.34 5.34 0 0 1 5.32 5.45 5.34 5.34 0 0 1-5.32 5.46ZM110.51 24.08h2.82v13.47h8.09v2.57h-10.91ZM99.66 23.8a8.29 8.29 0 1 0 8.34 8.3 8.29 8.29 0 0 0-8.34-8.3Zm0 13.88a5.59 5.59 0 1 1 5.59-5.59 5.59 5.59 0 0 1-5.59 5.6ZM102.45 2.49a8.29 8.29 0 1 0 8.29 8.29 8.29 8.29 0 0 0-8.29-8.29Zm0 13.88a5.59 5.59 0 1 1 5.55-5.59 5.59 5.59 0 0 1-5.55 5.59ZM96.87 45.12a8.29 8.29 0 1 0 8.29 8.29 8.29 8.29 0 0 0-8.29-8.29Zm0 13.88a5.59 5.59 0 1 1 5.59-5.59A5.59 5.59 0 0 1 96.87 59ZM87.23 59.28a8.29 8.29 0 1 1 0-11.73l-1.91 1.91a5.59 5.59 0 1 0 0 7.91ZM135.31 45.4h2.81v16h-2.4l-8.5-11.34v11.37h-2.81v-16h2.65l8.25 11ZM163.29 45.4h2.82v13.47h8.09v2.57h-10.91ZM160.3 45.4v16h-2.82v-16ZM154.87 59.28a8.29 8.29 0 1 1 0-11.73L153 49.46a5.59 5.59 0 1 0 0 7.91ZM130.64 24.08h-6.24v16h6.23a8 8 0 1 0 0-16Zm0 13.47h-3.42v-10.9h3.42a5.45 5.45 0 0 1 0 10.9ZM121.42 45.4h-2.81V55a4 4 0 1 1-8.1 0v-9.6h-2.81v9.45a6.86 6.86 0 1 0 13.72 0ZM88.64 31.22v6.28a9.43 9.43 0 0 1-7 2.95 8.29 8.29 0 1 1-.13-16.58 9 9 0 0 1 6.18 2.43l-1.91 1.91a6.36 6.36 0 0 0-4.27-1.64 5.65 5.65 0 0 0-5.72 5.53 5.75 5.75 0 0 0 5.85 5.65A6.35 6.35 0 0 0 86 36.33v-2.66h-4.1v-2.45ZM78.69 18.79h-2.43l-5.2-16.03h2.9l3.52 11.39 3.66-11.39h2.38l3.66 11.39L90.7 2.76h2.9l-5.21 16.03h-2.42L82.33 7.71l-3.64 11.08z"></path>
</svg>